<?xml version="1.0" encoding="UTF-8"?>
<svg xmlns="http://www.w3.org/2000/svg" width="101" height="30" viewBox="0 0 101 30" fill="none">
  <g clip-path="url(#clip0_29_3867)">
    <path d="M21.4181 6.19091C21.3982 6.05189 21.2785 5.97243 21.1788 5.97243C21.0791 5.97243 19.1048 5.93273 19.1048 5.93273C19.1048 5.93273 17.4496 4.3438 17.29 4.16504C17.1305 4.00615 16.8114 4.04587 16.6918 4.08559C16.6918 4.08559 16.3727 4.1849 15.8542 4.3438C15.7744 4.06574 15.6348 3.72809 15.4553 3.37058C14.877 2.25832 13.9995 1.66247 12.9625 1.66247C12.8828 1.66247 12.8229 1.66247 12.7432 1.68233C12.7033 1.64261 12.6833 1.60288 12.6435 1.58303C12.1848 1.10634 11.6065 0.868004 10.9085 0.887866C9.57234 0.927589 8.2362 1.90081 7.13937 3.60891C6.38156 4.82048 5.80323 6.32998 5.62375 7.50179C4.08819 7.9785 3.0113 8.31615 2.97141 8.31615C2.19366 8.55448 2.17372 8.57434 2.07401 9.30924C2.03412 9.86536 0 25.5362 0 25.5362L17.0707 28.4758L24.4693 26.6485C24.4493 26.6485 21.438 6.32998 21.4181 6.19091ZM14.9967 4.62186C14.5978 4.74103 14.1591 4.88006 13.6805 5.03896C13.6805 4.36366 13.5808 3.4103 13.2816 2.61583C14.2987 2.77472 14.7972 3.9267 14.9967 4.62186ZM12.7831 5.29714C11.8857 5.57523 10.9085 5.87317 9.9313 6.17106C10.2105 5.11841 10.729 4.08559 11.3672 3.39044C11.6065 3.13223 11.9455 2.85417 12.3244 2.69528C12.7232 3.46988 12.803 4.56227 12.7831 5.29714ZM10.9484 1.78164C11.2674 1.78164 11.5267 1.84123 11.7461 2.00012C11.3871 2.17887 11.0281 2.45694 10.7091 2.81445C9.85153 3.72809 9.19343 5.13826 8.93418 6.50871C8.11654 6.76694 7.31885 7.00527 6.60092 7.22375C7.07954 5.05882 8.8943 1.84123 10.9484 1.78164Z" fill="#95BF47"></path>
    <path d="M21.1786 5.97263C21.0789 5.97263 19.1046 5.93292 19.1046 5.93292C19.1046 5.93292 17.4494 4.34398 17.2899 4.16523C17.23 4.10564 17.1503 4.06592 17.0705 4.06592V28.4759L24.4691 26.6487C24.4691 26.6487 21.4578 6.33013 21.4379 6.19111C21.398 6.05209 21.2783 5.97263 21.1786 5.97263Z" fill="#5E8E3E"></path>
    <path d="M12.9624 9.76544L12.1049 12.9632C12.1049 12.9632 11.1477 12.5262 10.0109 12.6056C8.33578 12.7049 8.33578 13.7576 8.33578 14.0158C8.43549 15.4459 12.2046 15.7637 12.424 19.1203C12.5835 21.7619 11.028 23.5693 8.75457 23.7083C6.04241 23.8474 4.54673 22.2584 4.54673 22.2584L5.12506 19.8154C5.12506 19.8154 6.64068 20.9476 7.83722 20.8681C8.61497 20.8284 8.91411 20.173 8.87422 19.736C8.75457 17.869 5.68345 17.9882 5.48402 14.9096C5.32448 12.3276 7.01958 9.72569 10.7687 9.48735C12.2245 9.38804 12.9624 9.76544 12.9624 9.76544Z" fill="white"></path>
  </g>
  <g clip-path="url(#clip1_29_3867)">
    <path d="M86.1797 9.90396H88.5258L88.0565 12.4399H85.733L83.9457 21.8496H80.5719L82.3592 12.4399H80.7952L81.2867 9.90396H82.8506L82.9402 9.34783C83.2083 7.92413 83.7445 6.52271 84.9065 5.54389C85.8225 4.76534 87.0066 4.43164 88.2129 4.43164C89.464 4.43164 90.0449 4.72085 90.0449 4.72085L89.3744 7.34575C89.3744 7.34575 88.9056 7.16782 88.3024 7.16782C87.1626 7.16782 86.4925 8.19109 86.2914 9.34783L86.1797 9.90396Z" fill="white"></path>
    <path d="M47.0593 9.65924C45.5623 9.65924 44.4005 10.3711 43.4845 11.4389L43.4398 11.4166L44.7357 4.65411H41.3397L38.0554 21.8496H41.429L42.5462 15.9769C42.993 13.7523 44.1324 12.3954 45.2047 12.3954C45.9643 12.3954 46.255 12.907 46.255 13.6411C46.255 14.1083 46.2102 14.6644 46.0986 15.1315L44.8249 21.8718H48.1987L49.5167 14.9313C49.6731 14.1972 49.7626 13.3297 49.7626 12.7291C49.8074 10.7937 48.824 9.65924 47.0593 9.65924Z" fill="white"></path>
    <path d="M33.6538 13.2852C33.6538 13.8191 34.1007 14.1972 34.9497 14.6644C36.2678 15.4207 37.3849 16.444 37.3402 17.9122C37.3402 20.5816 35.1731 22.072 32.1346 22.072C30.0568 22.072 28.8056 21.249 28.8056 21.249L29.6323 18.8687C29.6323 18.8687 30.9728 19.6028 32.4027 19.6028C33.3634 19.6028 33.8773 19.0912 33.8773 18.4461C33.8773 17.8455 33.5198 17.4228 32.4921 16.8444C31.2186 16.1103 30.2579 15.0871 30.2579 13.7523C30.2579 11.3944 32.3133 9.70374 35.2625 9.70374C37.3849 9.70374 38.0999 10.2599 38.0999 10.2599L37.3179 12.6401C37.3179 12.6401 36.3349 12.173 35.2178 12.173C34.2571 12.173 33.6538 12.5956 33.6538 13.2852Z" fill="white"></path>
    <path fill-rule="evenodd" clip-rule="evenodd" d="M50.6782 17.3782C50.6782 13.3074 53.3815 9.65915 57.448 9.65915C60.6206 9.65915 62.0281 11.9504 62.0055 14.3751C62.0055 18.535 59.3243 22.0942 55.3252 22.0942C52.2869 22.0942 50.6782 19.9809 50.6782 17.3782ZM54.1637 17.2892C54.1637 18.5127 54.6326 19.4915 55.7945 19.4915C57.5818 19.4915 58.5873 16.3327 58.5873 14.2416C58.5873 13.2406 58.2076 12.2174 57.0008 12.2174C55.1688 12.2174 54.1637 15.3539 54.1637 17.2892Z" fill="white"></path>
    <path fill-rule="evenodd" clip-rule="evenodd" d="M67.0997 11.6612C67.0997 11.6612 68.3955 9.65915 70.6742 9.65915C73.1542 9.65915 74.1597 11.6835 74.1597 13.9302C74.1597 18.0233 71.5681 22.0719 67.5911 22.0719C66.2953 22.0719 65.6027 21.627 65.6027 21.627H65.5357L64.5976 26.6099H61.2238L63.5694 14.3306C63.8375 12.9292 64.1057 11.0829 64.2621 9.85937H67.2561L67.0549 11.6612H67.0997ZM66.072 19.0688C66.072 19.0688 66.5856 19.5582 67.4573 19.5582C69.3337 19.5582 70.6295 16.4439 70.6295 14.2861C70.6295 13.3964 70.317 12.4398 69.2893 12.4398C68.1274 12.4398 67.0328 13.8412 66.6304 15.9323L66.072 19.0688Z" fill="white"></path>
    <path d="M77.0416 6.78954C77.0416 5.67728 77.9129 4.83199 78.9853 4.83199C80.013 4.83199 80.6836 5.52156 80.661 6.52262C80.6388 7.76831 79.7228 8.48016 78.6729 8.48016H78.6282C77.6674 8.48016 77.0416 7.79055 77.0416 6.78954Z" fill="white"></path>
    <path d="M77.6451 21.8496H74.2491L76.5279 9.9262H79.946L77.6451 21.8496Z" fill="white"></path>
    <path d="M96.6578 9.9262C96.6578 9.9262 94.5355 15.2205 93.5973 18.1124H93.5526C93.4856 17.1781 92.7261 9.9262 92.7261 9.9262H89.1737L91.2065 20.8708C91.2512 21.1155 91.2291 21.2712 91.1395 21.4269C90.7376 22.1832 90.0897 22.9173 89.3075 23.4512C88.6822 23.9183 87.9669 24.2076 87.4085 24.4077L88.3467 27.2551C89.0394 27.0994 90.4469 26.5432 91.6536 25.431C93.1949 23.9851 94.625 21.7828 96.0773 18.7575L100.21 9.9262H96.6578Z" fill="white"></path>
  </g>
  <defs>
    <clipPath id="clip0_29_3867">
      <rect width="24.374" height="27.6977" fill="white" transform="translate(0 0.886719)"></rect>
    </clipPath>
    <clipPath id="clip1_29_3867">
      <rect width="71.4046" height="29.4709" fill="white" transform="translate(28.8056)"></rect>
    </clipPath>
  </defs>
</svg>
